<?xml version="1.0" encoding="UTF-8"?>
<svg id="_レイヤー_1" data-name="レイヤー 1" xmlns="http://www.w3.org/2000/svg" viewBox="0 0 395.8530273 89.3867188">
  <defs>
    <style>
      .cls-1 {
        fill: #d7123a;
        stroke-width: 0px;
      }
    </style>
  </defs>
  <g>
    <path class="cls-1" d="M127.659668,63.3154297c0,1.0800781-.5756836,1.65625-1.6557617,1.65625h-26.2104492c-1.0800781,0-1.65625-.5761719-1.65625-1.65625V18.815918c0-1.0805664.5761719-1.65625,1.65625-1.65625h5.3286133c1.0800781,0,1.6557617.5756836,1.6557617,1.65625v38.6674805h19.2260742c1.0800781,0,1.6557617.5761719,1.6557617,1.65625v4.1757812Z"/>
    <path class="cls-1" d="M142.921875,63.3154297c0,1.0800781-.5756836,1.65625-1.6557617,1.65625h-5.3286133c-1.0800781,0-1.65625-.5761719-1.65625-1.65625V18.815918c0-1.0805664.5761719-1.65625,1.65625-1.65625h5.3286133c1.0800781,0,1.6557617.5756836,1.6557617,1.65625v44.4995117Z"/>
    <path class="cls-1" d="M186.4116211,17.159668c1.1523438,0,1.7285156.7197266,1.3681641,1.8720703l-13.8251953,44.5717773c-.2880859.9365234-.8642578,1.3681641-1.8720703,1.3681641h-6.3369141c-1.0078125,0-1.5839844-.4316406-1.8720703-1.3681641l-13.8969727-44.5717773c-.3603516-1.1523438.2158203-1.8720703,1.3681641-1.8720703h5.6884766c1.0078125,0,1.5839844.4321289,1.8720703,1.3681641l10.0805664,34.2749023h.144043l10.0810547-34.2749023c.2880859-.9360352.8642578-1.3681641,1.8720703-1.3681641h5.3286133Z"/>
    <path class="cls-1" d="M220.6118164,37.0332031c1.0800781,0,1.6552734.5761719,1.6552734,1.65625v4.1762695c0,1.0800781-.5751953,1.65625-1.6552734,1.65625h-17.1376953v12.9614258h20.3056641c1.0800781,0,1.65625.5761719,1.65625,1.65625v4.1757812c0,1.0800781-.5761719,1.65625-1.65625,1.65625h-27.2910156c-1.0800781,0-1.6552734-.5761719-1.6552734-1.65625V18.815918c0-1.0805664.5751953-1.65625,1.6552734-1.65625h27.2910156c1.0800781,0,1.65625.5756836,1.65625,1.65625v4.1762695c0,1.0800781-.5761719,1.65625-1.65625,1.65625h-20.3056641v12.3847656h17.1376953Z"/>
    <path class="cls-1" d="M242.2807617,63.3154297c0,1.0800781-.5761719,1.65625-1.65625,1.65625h-5.3291016c-1.0800781,0-1.6552734-.5761719-1.6552734-1.65625V18.815918c0-1.0805664.5751953-1.65625,1.6552734-1.65625h5.3291016c1.0800781,0,1.65625.5756836,1.65625,1.65625v19.2973633l14.6894531-19.9458008c.5039062-.7197266,1.0800781-1.0078125,2.015625-1.0078125h6.4082031c1.4404297,0,1.8730469.9360352,1.0087891,2.0161133l-16.6337891,21.3857422,17.4257812,22.3945312c.8642578,1.0800781.4316406,2.015625-1.0078125,2.015625h-6.9130859c-.9355469,0-1.5117188-.2880859-2.0166016-1.0078125l-14.9765625-20.1621094v19.5136719Z"/>
    <path class="cls-1" d="M273.3833008,33.5771484c0-11.1611328,6.1923828-17.2817383,17.5693359-17.2817383,11.3056641,0,17.5703125,6.1206055,17.5703125,17.2817383v14.9775391c0,11.1611328-6.2646484,17.28125-17.5703125,17.28125-11.3769531,0-17.5693359-6.1201172-17.5693359-17.28125v-14.9775391ZM282.0239258,47.7626953c0,7.1279297,2.9521484,10.5849609,8.9287109,10.5849609,6.0488281,0,8.9287109-3.4570312,8.9287109-10.5849609v-13.3935547c0-7.1289062-2.8798828-10.5849609-8.9287109-10.5849609-5.9765625,0-8.9287109,3.4560547-8.9287109,10.5849609v13.3935547Z"/>
    <path class="cls-1" d="M350.1381836,17.159668c1.0800781,0,1.65625.5756836,1.65625,1.65625v44.4995117c0,1.0800781-.5761719,1.65625-1.65625,1.65625h-5.7597656c-.9365234,0-1.5849609-.359375-2.0166016-1.1523438l-16.2734375-31.9707031h-.1435547v31.4667969c0,1.0800781-.5761719,1.65625-1.65625,1.65625h-5.1123047c-1.0810547,0-1.65625-.5761719-1.65625-1.65625V18.815918c0-1.0805664.5751953-1.65625,1.65625-1.65625h6.4804688c.9355469,0,1.5839844.3598633,2.015625,1.1518555l15.5537109,30.6025391h.1435547v-30.0981445c0-1.0805664.5761719-1.65625,1.65625-1.65625h5.1123047Z"/>
    <path class="cls-1" d="M388.081543,37.0332031c1.0800781,0,1.6552734.5761719,1.6552734,1.65625v4.1762695c0,1.0800781-.5751953,1.65625-1.6552734,1.65625h-17.1376953v12.9614258h20.3056641c1.0800781,0,1.65625.5761719,1.65625,1.65625v4.1757812c0,1.0800781-.5761719,1.65625-1.65625,1.65625h-27.2900391c-1.0810547,0-1.65625-.5761719-1.65625-1.65625V18.815918c0-1.0805664.5751953-1.65625,1.65625-1.65625h27.2900391c1.0800781,0,1.65625.5756836,1.65625,1.65625v4.1762695c0,1.0800781-.5761719,1.65625-1.65625,1.65625h-20.3056641v12.3847656h17.1376953Z"/>
  </g>
  <path class="cls-1" d="M69.9619141,63.421875c-.1533203,1.0732422-.7666016,1.6103516-1.840332,1.6103516h-5.2148438c-1.2270508,0-1.8408203-.6904297-1.6108398-1.9169922l5.3686523-34.3579102-8.8964844,5.9052734c-.996582.6137695-1.840332.4604492-2.4541016-.5366211l-2.0703125-3.527832c-.5371094-.9204102-.3837891-1.6870117.6132812-2.3774414l15.4150391-10.3530273c.6899414-.4604492,1.3803711-.6904297,2.3007812-.6904297h3.8344727c1.2270508,0,1.840332.6904297,1.6103516,1.9174805l-7.0556641,44.3271484Z"/>
  <path class="cls-1" d="M5.9833984,19.0527344c-.2299805-1.2270508.3833008-1.9174805,1.6103516-1.9174805h3.8344727c.9204102,0,1.6108398.2299805,2.3007812.6904297l15.4150391,10.3530273c.9970703.6904297,1.1503906,1.4570312.6132812,2.3774414l-2.0703125,3.527832c-.6137695.9970703-1.4575195,1.1503906-2.4541016.5366211l-8.8964844-5.9052734,5.3686523,34.3579102c.2299805,1.2265625-.3837891,1.9169922-1.6108398,1.9169922h-5.2148438c-1.0737305,0-1.6870117-.5371094-1.840332-1.6103516L5.9833984,19.0527344Z"/>
  <path class="cls-1" d="M16.8491211,46.8320312l53.3017578-15.5297852,1.2426758,4.265625-53.3017578,15.5297852-1.2426758-4.265625Z"/>
  <path class="cls-1" d="M14.8618164,60.5478516h39.3310547v4.4433594H14.8618164v-4.4433594Z"/>
  <path class="cls-1" d="M10.8422852,26.0488281h58.4960938v9.0942383H10.8422852v-9.0942383Z"/>
  <path class="cls-1" d="M16.6206055,45.6152344l37.4814453,14.9257812-1.644043,4.1289062-37.4814453-14.9257812,1.644043-4.1289062Z"/>
</svg>